<svg xmlns="http://www.w3.org/2000/svg" viewBox="0 0 800 600">
  <defs>
    <linearGradient id="bg" x1="0" y1="0" x2="0" y2="1">
      <stop offset="0%" stop-color="#0a0f1e"/>
      <stop offset="100%" stop-color="#05070d"/>
    </linearGradient>
    <radialGradient id="glow" cx="50%" cy="45%" r="55%">
      <stop offset="0%" stop-color="#f0d68c" stop-opacity="0.18"/>
      <stop offset="100%" stop-color="#f0d68c" stop-opacity="0"/>
    </radialGradient>
  </defs>
  <rect width="800" height="600" fill="url(#bg)"/>
  <rect width="800" height="600" fill="url(#glow)"/>
  <g stroke="#c9a15a" stroke-width="2.5" fill="none" opacity="0.85">
    <rect x="260" y="290" width="280" height="190" rx="4"/>
    <path d="M250 290 L270 240 L530 240 L550 290 Z"/>
    <line x1="290" y1="290" x2="290" y2="240"/>
    <line x1="330" y1="290" x2="330" y2="240"/>
    <line x1="370" y1="290" x2="370" y2="240"/>
    <line x1="410" y1="290" x2="410" y2="240"/>
    <line x1="450" y1="290" x2="450" y2="240"/>
    <line x1="490" y1="290" x2="490" y2="240"/>
    <rect x="370" y="400" width="60" height="80"/>
    <rect x="290" y="330" width="60" height="50"/>
    <rect x="450" y="330" width="60" height="50"/>
  </g>
</svg>
